<svg xmlns="http://www.w3.org/2000/svg" fill-rule="evenodd" viewBox="0 0 100 100" width="70" height="70">
    <path d="M79.579 58.665a1.457 1.457 0 0 0-.09-.249l-9.056-18.935a1.5 1.5 0 0 0-1.354-.853H31.513c-.58 0-1.107.334-1.355.858l-8.97 18.935c-.003.007-.004.014-.008.021-4.633 1.195-8.071 5.397-8.071 10.398v6.664c0 4.872 3.261 8.992 7.713 10.306v9.646c0 1.815 1.688 3.293 3.763 3.293h4.694c2.075 0 3.763-1.478 3.763-3.293v-9.202h34.596v9.202c0 1.815 1.688 3.293 3.764 3.293h4.693c2.075 0 3.764-1.478 3.764-3.293v-9.878a10.734 10.734 0 0 0 3.875-2.482 10.666 10.666 0 0 0 3.156-7.593v-6.664c0-4.722-3.067-8.735-7.311-10.174zM32.462 41.628h35.672l7.873 16.463H24.664l7.798-16.463zm-2.418 53.814c-.03.088-.303.308-.765.308h-4.694c-.462 0-.734-.221-.763-.293v-9.204l.037.002h6.183l.002 9.187zm46.816 0c-.03.087-.304.308-.766.308h-4.693c-.462 0-.735-.221-.764-.293v-9.202h5.503c.241 0 .479-.019.718-.035l.002 9.222zm7.03-19.937c0 2.06-.809 4.003-2.277 5.472a7.689 7.689 0 0 1-5.472 2.278H23.859c-4.273 0-7.75-3.477-7.75-7.75v-6.664c0-4.273 3.477-7.75 7.75-7.75H76.14c4.273 0 7.75 3.477 7.75 7.75v6.664z"/>
    <path d="M26.932 66.284a5.896 5.896 0 0 0-5.889 5.889c0 3.248 2.642 5.89 5.889 5.89s5.889-2.642 5.889-5.89a5.896 5.896 0 0 0-5.889-5.889zm0 8.778a2.892 2.892 0 0 1-2.889-2.89 2.892 2.892 0 0 1 2.889-2.889 2.892 2.892 0 0 1 2.889 2.889 2.892 2.892 0 0 1-2.889 2.89zm46.816-9.151a5.896 5.896 0 0 0-5.889 5.889c0 3.248 2.642 5.89 5.889 5.89s5.889-2.642 5.889-5.89a5.896 5.896 0 0 0-5.889-5.889zm0 8.778a2.892 2.892 0 0 1-2.889-2.89c0-1.593 1.296-2.889 2.889-2.889s2.889 1.296 2.889 2.889a2.892 2.892 0 0 1-2.889 2.89zm-16.957-1.477H43.209a1.5 1.5 0 1 0 0 3h13.582a1.5 1.5 0 0 0 0-3zM50 27.431c4.183 0 7.585-3.403 7.585-7.586 0-3.523-5.191-14.566-6.231-16.744a1.502 1.502 0 0 0-2.708 0c-1.041 2.178-6.232 13.221-6.232 16.744 0 4.183 3.403 7.586 7.586 7.586zm0-20.119c2.145 4.748 4.585 10.732 4.585 12.533A4.59 4.59 0 0 1 50 24.431a4.59 4.59 0 0 1-4.586-4.586c0-1.801 2.441-7.785 4.586-12.533zM20.694 27.431c4.183 0 7.586-3.403 7.586-7.586 0-3.523-5.191-14.566-6.231-16.744a1.5 1.5 0 0 0-2.708-.001c-1.041 2.178-6.233 13.221-6.233 16.744 0 4.184 3.403 7.587 7.586 7.587zm.001-20.119c2.145 4.749 4.585 10.733 4.585 12.534 0 2.529-2.057 4.586-4.586 4.586s-4.586-2.057-4.586-4.586c0-1.802 2.441-7.786 4.587-12.534zm58.668 20.119c4.183 0 7.586-3.403 7.586-7.586 0-3.523-5.191-14.566-6.232-16.744a1.5 1.5 0 0 0-2.707.001c-1.04 2.178-6.231 13.221-6.231 16.744-.001 4.182 3.402 7.585 7.584 7.585zm0-20.119c2.146 4.748 4.586 10.731 4.586 12.533 0 2.529-2.058 4.586-4.586 4.586s-4.585-2.057-4.585-4.586c0-1.801 2.441-7.785 4.585-12.533z"/>
</svg>
