<svg xmlns="http://www.w3.org/2000/svg" fill-rule="evenodd" viewBox="0 0 100 100" width="70" height="70">
    <path d="M33.389 32.752c7.812 0 14.166-6.354 14.166-14.166S41.201 4.42 33.389 4.42c-7.811 0-14.165 6.355-14.165 14.166s6.355 14.166 14.165 14.166zm0-25.363c6.174 0 11.197 5.023 11.197 11.197s-5.023 11.197-11.197 11.197-11.196-5.023-11.196-11.197S27.215 7.389 33.389 7.389zm-4.107 32.505c0-3.785-3.079-6.864-6.864-6.864s-6.864 3.079-6.864 6.864 3.079 6.864 6.864 6.864 6.864-3.078 6.864-6.864zm-10.76 0c0-2.148 1.747-3.896 3.896-3.896s3.896 1.748 3.896 3.896-1.747 3.896-3.896 3.896-3.896-1.748-3.896-3.896zm67.139 22.588c.015-.085.026-.171.026-.26l-.02-15.092c0-.174-.036-.339-.091-.495a12.011 12.011 0 0 0-.681-3.562c-1.589-4.555-5.673-8.663-11.204-11.271-13.899-6.549-22.709-1.199-25.854 1.405-2.085 1.727-4.121 4.951-6.091 8.07-1.106 1.752-2.152 3.407-3.062 4.55-1.175 1.476-3.998 2.577-6.987 3.742-5.152 2.009-10.993 4.287-12.943 9.857a10.747 10.747 0 0 0-.552 4.597v13.258c0 .057.003.113.01.17l.213 1.85c.01.09.028.178.055.265 1.646 5.381 6.931 9.645 17.132 13.823 5.407 2.218 10.471 3.309 14.899 3.309 6.423 0 11.506-2.296 14.34-6.778 1.277-2.021 2.481-4.673 3.646-7.237 1.466-3.228 2.981-6.566 4.611-8.616.562-.707 1.988-1.328 3.498-1.985 3.37-1.468 7.985-3.479 9.055-9.066.035-.183.03-.362 0-.534zm-64.104-2.075c1.499-4.28 6.44-6.208 11.22-8.071 3.372-1.315 6.558-2.558 8.23-4.66 1.011-1.27 2.099-2.991 3.249-4.814 1.76-2.786 3.754-5.944 5.476-7.369 2.707-2.243 10.336-6.829 22.693-1.005 4.815 2.27 8.339 5.756 9.667 9.563.748 2.145.701 4.171-.134 5.862-1.846 3.739-5.499 5.476-8.723 7.008-2.31 1.099-4.491 2.135-5.818 3.802-1.738 2.188-3.226 5.466-4.665 8.636-1.097 2.416-2.132 4.699-3.222 6.421-3.623 5.728-12.963 6.56-23.793 2.118-8.598-3.523-13.967-8.801-14.566-13.924v-.169c0-.079-.011-.155-.023-.23a7.88 7.88 0 0 1 .409-3.168zm53.864 8.951c-1.859.81-3.615 1.575-4.637 2.86-1.857 2.337-3.45 5.845-4.99 9.236-1.175 2.587-2.284 5.03-3.452 6.879-3.907 6.181-13.956 7.086-25.604 2.309-9.215-3.774-13.968-7.426-15.379-11.82l-.188-1.625v-6.065c2.785 3.686 7.395 7.035 13.44 9.512 5.061 2.076 9.803 3.097 13.952 3.097 6.032 0 10.81-2.159 13.477-6.375 1.198-1.896 2.326-4.379 3.416-6.781 1.364-3.006 2.774-6.113 4.284-8.014.898-1.129 2.779-2.022 4.771-2.969 2.665-1.267 5.827-2.776 8.197-5.508l.01 8.131c0 .082.012.161.024.239-.777 4.043-4.104 5.493-7.321 6.894z"/>
    <path d="M27.489 19.271a6.592 6.592 0 0 1 6.585-6.585 1.484 1.484 0 0 0 0-2.968c-5.268 0-9.554 4.286-9.554 9.554a1.483 1.483 0 1 0 2.969-.001z"/>
</svg>
