<svg width="3" height="5" viewBox="0 0 3 5" fill="none" xmlns="http://www.w3.org/2000/svg">
<mask id="path-1-inside-1_0_92" fill="white">
<path d="M2 0H1C0.44775 0 0 0.44775 0 1V5H1V4H2V5H3V1C3 0.44775 2.55225 0 2 0ZM2 3H1V1H2V3Z"/>
</mask>
<path d="M2 0H1C0.44775 0 0 0.44775 0 1V5H1V4H2V5H3V1C3 0.44775 2.55225 0 2 0ZM2 3H1V1H2V3Z" fill="white"/>
<path d="M0 5H-1V6H0V5ZM1 5V6H2V5H1ZM1 4V3H0V4H1ZM2 4H3V3H2V4ZM2 5H1V6H2V5ZM3 5V6H4V5H3ZM2 3V4H3V3H2ZM1 3H0V4H1V3ZM1 1V0H0V1H1ZM2 1H3V0H2V1ZM2 -1H1V1H2V-1ZM1 -1C-0.104535 -1 -1 -0.104535 -1 1H1V-1ZM-1 1V5H1V1H-1ZM0 6H1V4H0V6ZM2 5V4H0V5H2ZM1 5H2V3H1V5ZM1 4V5H3V4H1ZM2 6H3V4H2V6ZM4 5V1H2V5H4ZM4 1C4 -0.104535 3.10453 -1 2 -1V1H4ZM2 2H1V4H2V2ZM2 3V1H0V3H2ZM1 2H2V0H1V2ZM1 1V3H3V1H1Z" fill="#DDDDDD" mask="url(#path-1-inside-1_0_92)"/>
</svg>
