<svg width="21" height="20" viewBox="0 0 21 20" fill="none" xmlns="http://www.w3.org/2000/svg">
<path fill-rule="evenodd" clip-rule="evenodd" d="M10.5 3.29409C6.63401 3.29409 3.5 6.24375 3.5 9.88233C3.5 11.611 4.20705 13.1846 5.36549 14.3605C5.40923 14.2243 5.4674 14.0905 5.54328 13.9628C5.80053 13.5299 6.12504 13.1296 6.51008 12.7757C6.89649 12.4205 7.33245 12.1224 7.80267 11.8868C7.08651 11.2416 6.63877 10.3399 6.63877 9.33331C6.63877 7.34422 8.38706 5.76468 10.5 5.76468C12.6129 5.76468 14.3612 7.34422 14.3612 9.33331C14.3612 10.3399 13.9135 11.2416 13.1973 11.8868C13.6675 12.1224 14.1035 12.4205 14.4899 12.7757C14.875 13.1296 15.1995 13.5299 15.4567 13.9628C15.5326 14.0905 15.5908 14.2243 15.6345 14.3605C16.7929 13.1846 17.5 11.611 17.5 9.88233C17.5 6.24375 14.366 3.29409 10.5 3.29409ZM13.9485 15.6171C13.9825 15.4526 13.9995 15.2982 14 15.1614C14.0008 14.9353 13.9568 14.813 13.9294 14.7668C13.7539 14.4715 13.5319 14.1973 13.2672 13.954C12.5367 13.2825 11.5417 12.9019 10.5 12.9019C9.4583 12.9019 8.4633 13.2825 7.73285 13.954C7.46812 14.1973 7.2461 14.4715 7.07062 14.7668C7.04317 14.813 6.99917 14.9353 7.00001 15.1614C7.00052 15.2982 7.01755 15.4526 7.05152 15.6171C8.06882 16.1603 9.24481 16.4706 10.5 16.4706C11.7552 16.4706 12.9312 16.1603 13.9485 15.6171ZM10.5 11.2549C11.6856 11.2549 12.6112 10.3764 12.6112 9.33331C12.6112 8.29025 11.6856 7.41174 10.5 7.41174C9.31444 7.41174 8.38877 8.29025 8.38877 9.33331C8.38877 10.3764 9.31444 11.2549 10.5 11.2549ZM1.75 9.88233C1.75 5.3341 5.66751 1.64703 10.5 1.64703C15.3325 1.64703 19.25 5.3341 19.25 9.88233C19.25 12.8118 17.6241 15.3834 15.1795 16.8421C13.8256 17.65 12.2195 18.1176 10.5 18.1176C8.7805 18.1176 7.17437 17.65 5.82051 16.8421C3.37587 15.3834 1.75 12.8118 1.75 9.88233Z" fill="black"/>
</svg>
